<?xml version="1.0" standalone="no"?>
<!DOCTYPE svg PUBLIC "-//W3C//DTD SVG 20010904//EN"
 "http://www.w3.org/TR/2001/REC-SVG-20010904/DTD/svg10.dtd">
<svg version="1.0" xmlns="http://www.w3.org/2000/svg"
 width="261.000000pt" height="238.000000pt" viewBox="0 0 261.000000 238.000000"
 preserveAspectRatio="xMidYMid meet">
<metadata>
Created by potrace 1.16, written by Peter Selinger 2001-2019
</metadata>
<g transform="translate(0.000000,238.000000) scale(0.100000,-0.100000)"
fill="#000000" stroke="none">
<path d="M728 2360 c-153 -38 -279 -111 -409 -239 -42 -42 -92 -87 -109 -100
-40 -31 -69 -93 -70 -149 0 -23 -9 -75 -20 -115 -76 -269 11 -608 204 -796
l45 -44 -57 -37 c-104 -67 -186 -174 -217 -285 -9 -33 -21 -67 -26 -75 -5 -8
-23 -43 -40 -78 -29 -59 -31 -69 -27 -150 6 -127 52 -205 152 -262 48 -28 58
-30 159 -30 94 0 114 3 155 24 58 30 116 91 144 154 33 73 31 190 -4 262 -31
62 -30 65 42 104 l50 27 0 -119 c0 -84 -4 -128 -14 -147 -8 -15 -17 -49 -21
-75 -8 -62 19 -127 66 -161 31 -22 46 -24 157 -27 146 -4 193 11 230 77 20 36
22 52 22 224 l0 186 50 -22 c32 -15 58 -34 70 -55 l20 -33 -20 -29 c-51 -71
-47 -190 8 -245 40 -40 66 -47 183 -44 97 2 108 1 130 -19 38 -36 86 -44 225
-41 123 4 133 6 173 32 71 47 84 91 78 261 -3 85 -11 160 -20 188 -14 46 -14
51 15 140 25 77 31 111 32 195 l1 101 51 0 c83 -1 161 50 186 123 7 20 18 28
44 32 73 12 133 87 134 168 0 60 28 132 70 183 22 26 40 51 40 55 0 38 -104
68 -199 57 -151 -18 -245 -115 -258 -267 -5 -46 -1 -66 17 -104 12 -25 33 -53
46 -62 31 -20 30 -33 -4 -66 -59 -56 -134 -41 -173 36 -45 87 -120 155 -191
172 -16 4 -28 9 -28 11 0 3 11 32 26 67 61 150 114 466 84 502 -21 25 -64 19
-82 -13 -9 -16 -39 -49 -67 -75 -60 -56 -100 -63 -127 -22 -50 77 67 336 222
492 79 79 86 90 72 116 -8 16 -45 17 -576 16 -521 0 -573 -2 -644 -19z m1076
-59 c3 -4 -6 -19 -20 -32 -106 -98 -224 -344 -224 -466 0 -141 119 -199 240
-118 l51 34 -7 -47 c-15 -106 -56 -239 -103 -335 l-49 -102 -2 70 c-2 107 -10
116 -43 48 -15 -32 -44 -80 -65 -107 -39 -52 -108 -113 -117 -104 -3 3 6 29
19 59 34 75 45 155 48 361 l3 178 -33 -53 c-18 -28 -42 -78 -54 -110 -19 -53
-23 -57 -37 -42 -11 10 -17 39 -19 88 l-3 72 35 24 c36 23 86 108 86 144 0 71
-54 153 -123 186 -86 42 -172 18 -251 -70 -48 -54 -94 -71 -226 -84 l-65 -7
31 33 c17 19 56 70 87 115 31 45 74 97 96 117 37 33 38 37 19 42 -71 23 -214
-39 -312 -137 l-68 -68 7 37 c9 49 39 108 83 162 33 40 34 43 11 36 -88 -27
-222 -103 -299 -170 l-35 -31 -43 22 -42 22 52 47 c109 98 268 168 416 184
104 11 949 13 956 2z m-1405 -336 c16 -8 58 -50 95 -94 63 -77 107 -111 140
-111 11 0 16 -15 18 -62 3 -63 3 -63 33 -63 30 0 30 0 33 63 3 61 3 62 32 62
28 0 29 -2 32 -56 3 -64 23 -88 56 -68 14 9 16 22 14 68 l-4 56 36 0 35 0 3
-56 c2 -41 8 -60 21 -68 31 -20 52 4 55 66 3 54 4 56 35 62 22 4 48 24 82 63
118 134 141 153 189 153 25 0 48 -6 55 -14 9 -11 5 -15 -24 -20 -75 -14 -174
-146 -110 -146 7 0 17 11 23 25 17 38 69 65 125 65 42 0 47 -2 47 -22 0 -36
-38 -88 -75 -104 -19 -8 -54 -14 -79 -14 -25 0 -48 -5 -52 -12 -9 -15 31 -48
68 -55 33 -7 34 -18 14 -125 -54 -284 -225 -491 -424 -515 -109 -12 -251 51
-340 152 -84 96 -152 289 -152 436 0 50 3 57 25 67 14 7 25 20 25 31 0 16 -9
19 -60 23 -39 3 -70 11 -88 24 -30 23 -67 88 -57 104 3 5 27 10 53 10 55 0
107 -27 124 -65 14 -31 38 -33 38 -3 0 45 -93 128 -145 128 -18 0 -20 16 -2
23 25 11 79 7 106 -8z m-146 -333 c-8 -32 -15 -107 -15 -172 0 -120 19 -220
61 -315 11 -25 18 -45 16 -45 -2 0 -19 26 -38 58 -82 135 -120 321 -99 477 6
47 14 90 17 95 4 6 21 -1 39 -15 l33 -25 -14 -58z m2201 -189 c-13 -25 -24
-55 -24 -65 0 -31 -17 -11 -24 27 -8 43 -20 45 -36 5 -16 -38 -84 -100 -110
-100 -26 0 -26 29 -1 78 34 67 91 101 167 102 l51 0 -23 -47z m-582 -258 c89
-59 132 -162 131 -315 -1 -79 -6 -111 -32 -188 -35 -107 -37 -123 -15 -183 9
-27 17 -94 20 -169 5 -114 4 -128 -15 -157 -23 -37 -77 -56 -144 -51 l-42 3 1
53 c1 38 -2 52 -12 52 -17 0 -44 -51 -44 -85 0 -22 -4 -26 -22 -23 -21 3 -23
8 -22 56 2 58 -17 72 -38 27 -15 -33 -28 -32 -28 3 0 48 19 95 51 128 45 46
38 74 -24 90 -87 22 -149 90 -178 194 -15 55 -26 70 -50 70 -28 0 -39 -30 -29
-76 5 -21 10 -43 10 -48 0 -5 -30 -6 -66 -3 -48 3 -86 15 -140 42 -124 61
-118 70 -124 -200 -3 -126 -9 -238 -13 -247 -10 -20 -58 -38 -103 -38 l-34 0
0 56 c0 70 -17 68 -45 -4 -31 -79 -53 -64 -46 30 3 39 -16 35 -36 -7 -19 -40
-33 -45 -34 -12 -4 77 19 117 76 133 43 12 61 33 52 59 -6 13 -17 16 -52 13
l-45 -3 0 168 c0 156 1 168 18 163 9 -2 46 -8 82 -11 151 -15 369 40 522 131
101 60 254 209 322 312 47 71 50 74 80 68 17 -4 48 -18 68 -31z m-1297 -400
c39 -18 83 -37 98 -40 24 -6 27 -12 27 -50 0 -40 -2 -42 -38 -53 -21 -6 -60
-27 -86 -46 l-49 -35 -28 22 c-40 29 -54 14 -39 -43 15 -55 6 -101 -26 -140
-31 -37 -44 -31 -44 20 0 21 -4 41 -9 45 -15 9 -31 -30 -31 -75 l0 -41 -37 3
-38 3 -1 60 c-1 65 -18 84 -34 38 -26 -70 -24 -70 -49 -29 -63 101 30 293 193
398 l59 38 31 -21 c17 -11 63 -36 101 -54z m894 -347 c18 -21 47 -46 65 -58
l33 -20 -18 -52 c-10 -29 -18 -67 -19 -84 0 -32 -14 -44 -51 -44 -16 0 -19 7
-19 50 0 28 -4 50 -10 50 -13 0 -36 -38 -44 -72 -4 -16 -13 -28 -21 -28 -16 0
-18 6 -15 63 2 46 -14 48 -40 5 l-20 -33 0 42 c0 55 14 84 51 105 34 20 37 45
9 81 -11 14 -20 27 -20 29 0 2 19 4 43 3 37 0 48 -5 76 -37z m-1350 -61 c7
-13 11 -29 9 -36 -3 -13 12 -25 45 -35 11 -4 21 -15 24 -26 11 -42 151 -58
226 -26 45 20 48 8 11 -41 -72 -95 -215 -98 -301 -6 -31 34 -34 35 -28 13 6
-20 5 -23 -6 -13 -23 23 -24 193 0 193 4 0 13 -10 20 -23z"/>
<path d="M700 1324 c0 -3 23 -26 51 -51 55 -50 63 -85 22 -91 -28 -4 -30 -28
-4 -42 51 -27 169 -1 192 42 16 31 -3 44 -34 23 -31 -20 -81 -16 -85 7 -2 9
16 34 42 59 25 23 46 45 46 50 0 5 -52 9 -115 9 -63 0 -115 -3 -115 -6z"/>
<path d="M2092 2300 c-113 -23 -182 -112 -182 -235 0 -63 28 -111 80 -137 66
-34 145 -13 186 49 12 17 24 57 28 88 7 62 32 119 65 149 27 25 27 52 -1 70
-30 18 -122 26 -176 16z"/>
</g>
</svg>
