<svg id="bff92399-c1a0-4395-a7e7-c5e6cab3db6e" data-name="Layer 1" xmlns="http://www.w3.org/2000/svg" viewBox="0 0 52.2237 48"><path d="M49.9316,17.7748a6.3544,6.3544,0,0,0-1.2791,3.0913,8.9156,8.9156,0,0,0-.0782,1.19,1.88,1.88,0,1,1-3.7591,0c0-.1859.01-.37.0271-.5482a4.0523,4.0523,0,0,1,1.4834-2.9053,4.6153,4.6153,0,0,1,2.863-.8658A7.1941,7.1941,0,0,1,49.9316,17.7748Z" fill="#ee3338"/><path d="M39.3161,34.9307a3.4856,3.4856,0,0,0-.3918,1.8408v.0024a1.3719,1.3719,0,0,0,.1.2737c.5075,1.0118.7469,2.1657.7469,5.9878a2.14,2.14,0,0,1-2.3037,2.3037h-3.59A1.5131,1.5131,0,0,1,32.33,43.7919a3.83,3.83,0,0,1,.5106-2.2151,3.3665,3.3665,0,0,1,.8483-.8873.7684.7684,0,0,0-.4573-1.3861c-1.8943,0-3.7407-2.1177-4.1134-4.7222a.7682.7682,0,1,0-1.5209.217c.0232.1668.0543.332.0862.4947a8.3249,8.3249,0,0,0,.4078,1.3709,8.5142,8.5142,0,0,1-5.5673-1.6509.769.769,0,0,0-1.2217.62v8.159a1.5471,1.5471,0,0,1-1.5472,1.5472h-3.258a1.5479,1.5479,0,0,1-1.53-1.3182c-.004-.0295-.008-.06-.01-.0886a1.18,1.18,0,0,1-.0079-.14,2.4113,2.4113,0,0,1,.6335-1.87,2.3791,2.3791,0,0,1,1.4108-.5211.7662.7662,0,0,0,.6974-.833l-.0024-.0088a.7691.7691,0,0,0-.687-.6878.8713.8713,0,0,0-.1445,0,4.75,4.75,0,0,0-1.157.2457V33.4082c.4277.08.8618.1436,1.3015.1875a16.29,16.29,0,0,0,1.7738.0942h.01A17.98,17.98,0,0,0,28.46,30.8316a21.5365,21.5365,0,0,0,7.0914-7.551,5.19,5.19,0,0,1,4.3137,3.8645c.0686.2218.1284.4461.1747.6687a12.1366,12.1366,0,0,1,.2609,2.41l-.2377,2.32A15.5212,15.5212,0,0,1,39.3161,34.9307Z" fill="#ffeece"/><path d="M39.8642,27.1449c-1.49-1.868-3.578-1.4091-6.3971,1.5441a17.7887,17.7887,0,0,1-12.8677,5.6933H20.597A15.95,15.95,0,0,1,15.7,33.62V33.408a16.7682,16.7682,0,0,0,3.0752.2817h.01a17.9872,17.9872,0,0,0,9.6743-2.8582,21.5373,21.5373,0,0,0,7.0914-7.551A5.19,5.19,0,0,1,39.8642,27.1449Z" fill="#fff"/><path d="M11.9385,41.6469a5.5863,5.5863,0,1,1-.5131-2.3372A5.5283,5.5283,0,0,1,11.9385,41.6469Z" fill="#ee3338"/><path d="M6.4893,43.1515a5.09,5.09,0,0,1-4.6065-2.9236,3.8891,3.8891,0,0,0,7.511,2.01A5.0609,5.0609,0,0,1,6.4893,43.1515Z" fill="#ffc32d"/><path d="M2.0346,43.0473a5.5835,5.5835,0,0,1,9.0328-4.3919,5.584,5.584,0,1,0-8.163,7.3834A5.5573,5.5573,0,0,1,2.0346,43.0473Z" fill="#fff"/><path d="M6.3525,48A6.3522,6.3522,0,0,1,2.0116,37.01a.7675.7675,0,1,1,1.0493,1.12A4.7734,4.7734,0,0,0,1.536,41.6475a4.8169,4.8169,0,1,0,8.3913-3.2293.768.768,0,1,1,1.14-1.0293A6.3537,6.3537,0,0,1,6.3525,48Z" fill="#2d3448"/><path d="M3.9323,42.2509a.6164.6164,0,1,1-.616-.616A.6158.6158,0,0,1,3.9323,42.2509Z" fill="#fff"/><path d="M17.0014,33.5958v6.2759a.87.87,0,0,0-.1444,0,4.7405,4.7405,0,0,0-1.157.2457V33.4083C16.1277,33.4881,16.5617,33.5519,17.0014,33.5958Z" fill="#fff"/><path d="M14.1636,33.0487v1.6669a6.1631,6.1631,0,0,0-3.2094,1.5528c-.1117.0933-.2577.2226-.4165.3742-.0295-.0479-.0559-.0941-.0886-.14a2.0467,2.0467,0,0,0-.7947-.67.3851.3851,0,0,0-.2306-.03H9.4222a.2175.2175,0,0,0-.0519.0119.4068.4068,0,0,0-.2865.328.1436.1436,0,0,0-.004.0487.3682.3682,0,0,0,.0152.13l.016.0535a.6035.6035,0,0,0,.0191.0615c.067.2322.1245.4356.1652.6415a5.0945,5.0945,0,0,1,.0973.6447,2.4336,2.4336,0,0,1,.012.2841,3.3373,3.3373,0,0,1-.0271.3344,2.877,2.877,0,0,1-2.0444,2.3723,2.9878,2.9878,0,0,1-1.3.0774,3.3474,3.3474,0,0,1-1.244-.4836,3.4354,3.4354,0,0,1-.3822-.2849,3.17,3.17,0,0,1-.4676-.4987,2.6029,2.6029,0,0,1-.5323-1.315c-.004-.0527-.01-.1021-.01-.154l-.0024-.0766.0024-.0918c.0079-.1213.0039-.2441.0191-.3646.0136-.1213.0215-.2442.0407-.3655l.0654-.3631a6.69,6.69,0,0,1,.474-1.4163,9.068,9.068,0,0,1,1.7619-2.5144A10.569,10.569,0,0,1,8.2332,30.958c.2578-.1436.52-.27.7876-.3862.3862.2745.7852.5355,1.1937.778A16.8559,16.8559,0,0,0,14.1636,33.0487Z" fill="#f5d394"/><path d="M3.94,39.5227a2.6108,2.6108,0,0,1-.5322-1.315c-.0032-.0527-.01-.1022-.01-.154l-.0016-.0766.0016-.0926c.008-.12.004-.2434.02-.3646.0128-.12.0208-.2434.04-.3647l.0654-.3631a6.6841,6.6841,0,0,1,.474-1.4163A9.0574,9.0574,0,0,1,5.76,32.8606a10.5663,10.5663,0,0,1,2.4745-1.9023,8.75,8.75,0,0,1,.7867-.3862c.3862.2745.786.5354,1.1946.778C6.7272,32.2773,3.5075,36.7674,3.94,39.5227Z" fill="#fff"/><path d="M31.7918,43.9332A2.796,2.796,0,0,1,29.915,45.115H27.7438A2.3127,2.3127,0,0,1,25.4305,42.8a3.0534,3.0534,0,0,1,1.9662-3.1072c-.6088-.8234-1.2951-1.3206-1.7308-2.0347l.0008-.0008a25.01,25.01,0,0,0,3.843-.1788,4.8491,4.8491,0,0,0,3.953,2.6891,4.14,4.14,0,0,0-1.6717,3.7208C31.791,43.9045,31.791,43.9173,31.7918,43.9332Z" fill="#e28536"/><path d="M17.7045,40.5577c0,1.0365-.38,1.8-1.21,1.8-1.1706,0-1.5257,1.2672-1.5257,1.6183,0,.0159-.0024.0311-.0024.0447a1.5587,1.5587,0,0,1-.0167-.2283,2.4147,2.4147,0,0,1,.6335-1.87,2.3761,2.3761,0,0,1,1.4108-.52.7666.7666,0,0,0,.6966-.8331l-.0016-.01Z" fill="#fff"/><path d="M28.09,36.6636a8.5164,8.5164,0,0,1-5.5673-1.651.7692.7692,0,0,0-1.2208.62v8.16a1.5475,1.5475,0,0,1-1.5472,1.5465H16.4963a1.5487,1.5487,0,0,1-1.53-1.3182c-.004-.0288-.008-.0591-.01-.0886l.012-.1053c.3718.675,1.927.63,2.8008.2106,2.6763-1.2823,2.6515-6.923,2.6515-6.923v-.6559a1.6488,1.6488,0,0,1,1.651-1.6494s.29.0822.6272.1756c.3375.0894.7221.1891.9081.2218,1.7123.2977,2.9946.5722,4.0759.0862A8.4112,8.4112,0,0,0,28.09,36.6636Z" fill="#e28536"/><path d="M14.164,33.0816v1.6342a6.1624,6.1624,0,0,0-3.2093,1.5528c-.1118.0933-.2578.2226-.4166.3742-.03-.0479-.0558-.0941-.0885-.14a2.0477,2.0477,0,0,0-.7948-.67.385.385,0,0,0-.2306-.03C10.1735,34.4309,12.7,33.4462,14.164,33.0816Z" fill="#ffc32d"/><path d="M39.7706,43.0354a2.14,2.14,0,0,1-2.3036,2.3037h-3.59a1.5134,1.5134,0,0,1-1.548-1.5472,3.8282,3.8282,0,0,1,.5107-2.2151c1.1506,2.7665,6.3548,1.5336,6.0843-4.8037a1.3674,1.3674,0,0,0,.1.2745C39.5305,38.0594,39.7706,39.2133,39.7706,43.0354Z" fill="#e28536"/><path d="M9.0811,36.19c-.0056-.0231-.012-.0463-.0168-.0694l.0208.0207A.1436.1436,0,0,0,9.0811,36.19Z" fill="#ffc32d"/><path d="M9.4056,38.0055a3.3037,3.3037,0,0,1-.0271.3343,2.8784,2.8784,0,0,1-2.0443,2.3731,3,3,0,0,1-1.3.0766A3.3472,3.3472,0,0,1,4.79,40.306a3.4479,3.4479,0,0,1-.3822-.2849l.1308-.5314c1.1539,1.3285,4.9912-.43,4.5922-3.0546.0671.2322.1245.4357.1652.6416a5.25,5.25,0,0,1,.0974.6455A2.433,2.433,0,0,1,9.4056,38.0055Z" fill="#ffc32d"/><path d="M7.4461,41.4013A2.1249,2.1249,0,0,1,7.07,40.668a2.7163,2.7163,0,0,1-.1046-.7349,3.4084,3.4084,0,0,1,.2817-1.3453A.289.289,0,0,1,7.8,38.745l-.0016.0111A2.6613,2.6613,0,0,0,7.8251,39.84a1.784,1.784,0,0,0,.1819.4573,1.002,1.002,0,0,0,.27.3056.5859.5859,0,1,1-.6686.9623.6113.6113,0,0,1-.1221-.1133Z" fill="#2d3448"/><path d="M4.7346,41.6366a1.7057,1.7057,0,0,1-.1349-.178,1.2861,1.2861,0,0,1-.0742-.1548.76.76,0,0,1-.0471-.14l-.0319-.13a2.7154,2.7154,0,0,1-.0407-.4524,4.48,4.48,0,0,1,.0726-.8131,5.2788,5.2788,0,0,1,.1947-.7708,3.1155,3.1155,0,0,1,.3511-.74.289.289,0,0,1,.5075.27l-.0055.0127a2.49,2.49,0,0,0-.1533.6272,4.4,4.4,0,0,0-.0335.6719,3.51,3.51,0,0,0,.07.6471,1.61,1.61,0,0,0,.08.2681l.0248.0431c.0072.0168.0143.03.0207.03.0048.0008.012.0151.0112.0063a.0619.0619,0,0,0-.0207-.0351.5761.5761,0,1,1-.7908.8379Z" fill="#2d3448"/><path d="M15.4209,45.81a3.3345,3.3345,0,0,1,.0335-1.3374,2.9771,2.9771,0,0,1,.5577-1.1642.2894.2894,0,0,1,.4924.2953l-.0024.0072a2.2811,2.2811,0,0,0,.0263,1.8839.5831.5831,0,0,1-1.0557.4955.6279.6279,0,0,1-.0463-.1452Z" fill="#2d3448"/><path d="M17.2354,45.81a3.3508,3.3508,0,0,1,.0335-1.3374,2.9786,2.9786,0,0,1,.5578-1.1642.2893.2893,0,0,1,.4923.2953l-.0024.0072a2.2838,2.2838,0,0,0,.0264,1.8839.5831.5831,0,0,1-1.0557.4955.6634.6634,0,0,1-.0463-.1452Z" fill="#2d3448"/><path d="M32.5563,45.81a3.3618,3.3618,0,0,1,.0335-1.3374,2.9771,2.9771,0,0,1,.5577-1.1642.29.29,0,0,1,.4932.2953l-.0032.0072a2.281,2.281,0,0,0,.0271,1.8839.5835.5835,0,0,1-1.0565.4955.6252.6252,0,0,1-.0455-.1452Z" fill="#2d3448"/><path d="M34.5732,45.81a3.3508,3.3508,0,0,1,.0335-1.3374,2.9759,2.9759,0,0,1,.5578-1.1642.2893.2893,0,0,1,.4923.2953l-.0024.0072a2.2811,2.2811,0,0,0,.0263,1.8839.5831.5831,0,1,1-1.0557.4955.6631.6631,0,0,1-.0462-.1452Z" fill="#2d3448"/><path d="M26.4454,44.9a3.349,3.349,0,0,1,.0335-1.3374,2.9759,2.9759,0,0,1,.5578-1.1642.29.29,0,0,1,.4923.296l-.0024.0064a2.2813,2.2813,0,0,0,.0263,1.884.5831.5831,0,1,1-1.0557.4955.6648.6648,0,0,1-.0462-.1452Z" fill="#2d3448"/><path d="M28.2649,44.9a3.3637,3.3637,0,0,1,.0335-1.3374,2.9771,2.9771,0,0,1,.5577-1.1642.29.29,0,0,1,.4932.296l-.0032.0064a2.2813,2.2813,0,0,0,.0271,1.884.5835.5835,0,0,1-1.0565.4955.6216.6216,0,0,1-.0454-.1452Z" fill="#2d3448"/><path d="M39.1484,6.4247a2.1186,2.1186,0,0,0,4.2371,0A4.7229,4.7229,0,0,1,45.0772,2.6C41.4577,1.6545,39.1484,3.4914,39.1484,6.4247Z" fill="#ee3338"/><path d="M49.9312,17.7748a6.3537,6.3537,0,0,0-1.2791,3.0912,9.9236,9.9236,0,0,0-.6328-2.3c-1.129,2.55-2.156,2.8974-3.1774,2.9421a4.0525,4.0525,0,0,1,1.4834-2.9054,4.6153,4.6153,0,0,1,2.863-.8657A7.1662,7.1662,0,0,1,49.9312,17.7748Z" fill="#ffc32d"/><path d="M38.681,6.414c1.4922-.154,1.639-1.422,3.432-2.4074-.6926,1.564.9272,2.7353.9272,2.7353L44.4031,3.62,44.0137,2.216,40.78,2.7355Z" fill="#ffc32d"/><path d="M38.3263,10.8074a24.2414,24.2414,0,0,1-3.329,12.4185c-3.507,5.8976-9.4206,9.6974-15.9223,9.6974h-.0016A16.0888,16.0888,0,0,1,4.1175,10.9359l.9408-1.6837,1.1251-2.014a16.0439,16.0439,0,0,1,12.89-6.47h19.616c-3.9642,2.9086-8.51,11.457-5.1643,13.0585C35.3029,14.6775,37.3074,12.4815,38.3263,10.8074Z" fill="#ee3338"/><path d="M28.1885,11.4222a2.78,2.78,0,0,1-1.4435,1.0947,3.6715,3.6715,0,0,1-.87.15,7.3836,7.3836,0,0,1-1.0254-.0447l-.0327-.004a.3962.3962,0,0,0-.2976.0941.4208.4208,0,0,0-.0519.5762,2.378,2.378,0,0,0,1.2137.7413,2.5006,2.5006,0,0,0,.7062.0837c-.5586,6.2719-3.0027,9.47-5.01,11.06a7.6083,7.6083,0,0,1-4.569,1.7826h-.0024a3.9367,3.9367,0,0,1-.6679-.0542,9.3486,9.3486,0,0,1-4.3344-1.9542l-.0024-.0024c-2.6644-2.1864-4.1613-5.9663-4.2443-10.96a2.39,2.39,0,0,0,.8945-.5219,1.6735,1.6735,0,0,0,.1692-.1747.4108.4108,0,0,0-.3511-.67l-.0312.004a7.4018,7.4018,0,0,1-1.0253.0447,3.6666,3.6666,0,0,1-.869-.15A2.7829,2.7829,0,0,1,4.898,11.4222a2.04,2.04,0,0,1-.3511-1.4036.9343.9343,0,0,1,.1261-.071,1.8581,1.8581,0,0,1,.5051-.1325,3.1707,3.1707,0,0,1,1.1921.091A2.8725,2.8725,0,0,1,7.457,10.44a2.0293,2.0293,0,0,1,.6735.96l.004.0088a.3848.3848,0,0,0,.7453-.1835,2.8052,2.8052,0,0,0-.2234-.695v-.0024a2.9838,2.9838,0,0,0-.5386-.7844,3.949,3.949,0,0,0-1.3653-.9264,4.6,4.6,0,0,0-1.2425-.32c.0368-.0287.0751-.0575.1134-.0862a2.5187,2.5187,0,0,1,.7931-.3846,1.5841,1.5841,0,0,1,.3647-.0575l.2146.012c.0694.0128.1405.0168.21.0327a3.2269,3.2269,0,0,1,1.5871.9536,18.4761,18.4761,0,0,1,1.46,1.7451,10.678,10.678,0,0,0,.8578.9815,3.475,3.475,0,0,0,.6239.4771,2.0081,2.0081,0,0,0,.4166.1868.7431.7431,0,0,0,.3439.0837H13.02V14.32c0,.0263.0024.0511.004.0766a.7679.7679,0,0,0,1.5281,0c.0024-.0255.004-.05.004-.0766V12.4411h1.1147V14.32c0,.0263.0024.0511.004.0766a.7679.7679,0,0,0,1.5281,0c.0024-.0255.004-.05.004-.0766V12.4411H18.53V14.32c0,.0263.0016.0511.004.0766a.7679.7679,0,0,0,1.528,0c.0016-.0255.004-.05.004-.0766V12.4411h.3208a1.8535,1.8535,0,0,0,.9671-.2705,3.5011,3.5011,0,0,0,.624-.4771,10.47,10.47,0,0,0,.8578-.9815,18.4607,18.4607,0,0,1,1.4594-1.7451,3.2194,3.2194,0,0,1,1.588-.9536c.0686-.0159.14-.02.209-.0327l.2131-.012a1.5883,1.5883,0,0,1,.367.0575,2.5161,2.5161,0,0,1,.7908.3846c.04.0287.0766.0575.1149.0862a4.5917,4.5917,0,0,0-1.2424.32,3.9692,3.9692,0,0,0-1.3669.9264,2.9665,2.9665,0,0,0-.4221.5673,2.7875,2.7875,0,0,0-.3375.9145.3844.3844,0,0,0,.7444.1835L24.956,11.4a2.0215,2.0215,0,0,1,.6751-.96,2.8663,2.8663,0,0,1,1.0852-.5338,3.1768,3.1768,0,0,1,1.1921-.091,1.8458,1.8458,0,0,1,.5067.1325,1.0164,1.0164,0,0,1,.1245.071A2.0218,2.0218,0,0,1,28.1885,11.4222Z" fill="#f5d394"/><path d="M15.0841,24.6679a1.7679,1.7679,0,0,0,1.7563.91,2.9467,2.9467,0,0,0,2.81-1.4794c.4253-.9991-.7326-.6671-.8618-.4788a11.5239,11.5239,0,0,1-.8059.97l-1.8672.0128Z" fill="#fff"/><path d="M16.44,19.334c-.8945,0-2.3491,1.3-2.3491,1.9454,0,.4046,1.0589.4613,2.3491.4621,1.29-.0008,2.3484-.0575,2.3484-.4621C18.7881,20.6339,17.3334,19.334,16.44,19.334Z" fill="#fff"/><path d="M26.3867,14.1139c-.5585,6.2719-3.0026,9.47-5.01,11.06a7.6088,7.6088,0,0,1-4.569,1.7827c6.0644-2.1393,8.2643-9.2786,7.6036-13.7591a.4009.4009,0,0,0,.0559.0918,2.3773,2.3773,0,0,0,1.2137.7413A2.4969,2.4969,0,0,0,26.3867,14.1139Z" fill="#ffc32d"/><path d="M11.8013,24.9453c-2.6644-2.1864-4.1621-5.967-4.2443-10.96a2.4037,2.4037,0,0,0,.8945-.5227C8.5967,16.4368,9.058,21.574,11.8013,24.9453Z" fill="#fff"/><path d="M43.2632,3.12a3.53,3.53,0,0,0-2.196.6615,3.2274,3.2274,0,0,0-1.15,2.6436,1.3506,1.3506,0,1,0,2.7011,0A5.5765,5.5765,0,0,1,43.572,3.129C43.4675,3.1234,43.3645,3.12,43.2632,3.12ZM41.2683,9.3123a2.89,2.89,0,0,1-2.887-2.887,4.723,4.723,0,0,1,1.7468-3.8589,5.852,5.852,0,0,1,5.1443-.7086.7682.7682,0,0,1,.312,1.32,3.9426,3.9426,0,0,0-1.43,3.2477A2.89,2.89,0,0,1,41.2683,9.3123Z" fill="#2d3448"/><path d="M39.12.5282A.7668.7668,0,0,0,38.39,0H18.7753l-.0079.0008A16.7024,16.7024,0,0,0,5.27,6.7785a.7685.7685,0,0,0,.1556,1.0749A.768.768,0,0,0,6.5005,7.697a15.18,15.18,0,0,1,12.274-6.161H36.3661c-2.7617,2.8375-5.33,7.531-5.05,10.5186a2.8212,2.8212,0,0,0,1.5783,2.464c1.4651.7006,3.0011-.0774,4.2507-1.331-1.0294,10.6542-8.8748,18.9665-18.37,18.9665l-.0071.0008A15.3186,15.3186,0,0,1,4.5336,11.2175a.768.768,0,0,0-1.4284-.5649A16.8564,16.8564,0,0,0,18.7745,33.6909l.0112-.0008C29.82,33.6837,38.795,23.42,38.795,10.8058a.7677.7677,0,0,0-1.4235-.399c-.8626,1.4164-2.5909,3.3123-3.8142,2.7266a1.307,1.307,0,0,1-.7125-1.2217C32.5942,9.2338,35.79,3.6274,38.8437,1.3868A.7685.7685,0,0,0,39.12.5282Z" fill="#2d3448"/><path d="M37.1451,13.1881c-1.2488,1.2528-2.7856,2.0316-4.2507,1.331a2.8213,2.8213,0,0,1-1.5783-2.4641C31.0631,9.3532,33.1386,5.2581,35.58,2.4H20.7066l-.0008.0008a16.0928,16.0928,0,0,0-3.9427.4891,6.8624,6.8624,0,0,0-2.6723,5.1c.9934-1.9646,5.13-5.2473,8.1614-4.1645C19.7434,5.19,18.7891,8.7172,16.9283,9.76a13.06,13.06,0,0,0,5.2242-.8969,11.3468,11.3468,0,0,1,.9328-1.1011,6.0565,6.0565,0,0,1,1.0732-.8786,4.1117,4.1117,0,0,1,1.3844-.5657c.1261-.0263.2538-.0391.3807-.0575.1276-.0087.2553-.0135.383-.0183a3.3658,3.3658,0,0,1,.8115.1165,4.2482,4.2482,0,0,1,1.3445.6495,4.5553,4.5553,0,0,1,1.0358,1.0349,3.933,3.933,0,0,1,.6343,1.3741,3.4351,3.4351,0,0,1,.0128,1.5552,3.8434,3.8434,0,0,1-.6248,1.3725,4.3775,4.3775,0,0,1-1.5592,1.3413c-.0407.5762-.0973,1.1267-.166,1.659a5.0291,5.0291,0,0,0,.7876,2.0363A13.7588,13.7588,0,0,1,30.92,12.7181c-.5673,6.7243.6064,8.3418-1.7858,12.3219,2.0531-.73,3.969-4.0527,4.5507-5.8226a9.4537,9.4537,0,0,1,.2035,3.8653A23.2722,23.2722,0,0,0,37.1451,13.1881Z" fill="#ffc32d"/><path d="M28.1882,11.4222a2.7824,2.7824,0,0,1-1.4443,1.0948,3.7032,3.7032,0,0,1-.869.1508,7.5293,7.5293,0,0,1-1.0261-.0462l-.0328-.0032a.4088.4088,0,0,0-.3487.6694,2.3777,2.3777,0,0,0,1.2129.7429,2.5557,2.5557,0,0,0,.7062.083c-.5586,6.2711-3.0027,9.47-5.0095,11.06a7.0557,7.0557,0,0,1-5.24,1.7267c-5.3487-.9543-8.46-5.6534-8.58-12.9155a2.3327,2.3327,0,0,0,1.0621-.6975.4083.4083,0,0,0-.3495-.6694l-.0311.0032a7.5412,7.5412,0,0,1-1.0262.0462,3.6943,3.6943,0,0,1-.8689-.1508,2.7754,2.7754,0,0,1-1.4443-1.0948A2.03,2.03,0,0,1,4.5466,10.02a.7989.7989,0,0,1,.126-.0711,1.8373,1.8373,0,0,1,.5059-.1332,3.1871,3.1871,0,0,1,1.1914.09,2.8925,2.8925,0,0,1,1.0868.5339A2.037,2.037,0,0,1,8.131,11.4l.0031.0088a.3845.3845,0,0,0,.7445-.1843,2.9151,2.9151,0,0,0-.7612-1.4818,3.9405,3.9405,0,0,0-1.3669-.9249A4.5467,4.5467,0,0,0,5.5089,8.497c.0375-.0288.075-.0583.1141-.0854a2.5465,2.5465,0,0,1,.7924-.3862A1.574,1.574,0,0,1,6.7808,7.97l.2139.0112c.0694.0128.14.0176.209.0327a3.2291,3.2291,0,0,1,1.5879.9536,18.4119,18.4119,0,0,1,1.4595,1.7443,9.979,9.979,0,0,0,.8586.9807,3.35,3.35,0,0,0,.6224.4787,2.0987,2.0987,0,0,0,.4173.1875.766.766,0,0,0,.3439.0846H13.02v1.876a.768.768,0,1,0,1.536,0v-1.876h1.1156v1.876a.768.768,0,1,0,1.536,0v-1.876H18.53v1.876a.7681.7681,0,1,0,1.5361,0v-1.876h.3207a1.8715,1.8715,0,0,0,.9671-.2721,3.3541,3.3541,0,0,0,.6232-.4787,10.1816,10.1816,0,0,0,.8586-.9807A18.5609,18.5609,0,0,1,24.2942,8.967a3.2359,3.2359,0,0,1,1.5879-.9536c.0694-.0151.14-.02.21-.0327l.213-.0112a1.5818,1.5818,0,0,1,.3663.0559,2.5422,2.5422,0,0,1,.7915.3862c.04.0271.0766.0566.1141.0854a4.5551,4.5551,0,0,0-1.2416.3207,3.9458,3.9458,0,0,0-1.3661.9249,2.9159,2.9159,0,0,0-.7612,1.4818.3845.3845,0,0,0,.7445.1843l.0032-.0088a2.037,2.037,0,0,1,.6743-.9607,2.889,2.889,0,0,1,1.086-.5339,3.1908,3.1908,0,0,1,1.1921-.09,1.8517,1.8517,0,0,1,.5059.1332.8226.8226,0,0,1,.1253.0711A2.0257,2.0257,0,0,1,28.1882,11.4222ZM30.1328,9.417a3.9187,3.9187,0,0,0-.6352-1.3741A4.523,4.523,0,0,0,28.4619,7.008a4.2362,4.2362,0,0,0-1.3438-.6495,3.326,3.326,0,0,0-.8115-.1165c-.1285.0048-.2553.01-.383.0183-.1269.0184-.2553.0311-.3806.0575a4.1064,4.1064,0,0,0-1.3845.5657,6.0655,6.0655,0,0,0-1.074.8786,17.8662,17.8662,0,0,0-1.5608,1.9486,8.9206,8.9206,0,0,1-.6766.8458,2.0792,2.0792,0,0,1-.3033.27.4675.4675,0,0,1-.1572.0806H12.7a.4771.4771,0,0,1-.158-.0806,2.1161,2.1161,0,0,1-.3032-.27,8.92,8.92,0,0,1-.6759-.8458,17.8774,17.8774,0,0,0-1.5616-1.9486,6.0521,6.0521,0,0,0-1.0732-.8786,4.1092,4.1092,0,0,0-1.3852-.5657c-.1253-.0264-.253-.0391-.3806-.0575-.1269-.0088-.2546-.0135-.3823-.0183a3.3218,3.3218,0,0,0-.8115.1165A4.2482,4.2482,0,0,0,4.624,7.008,4.5553,4.5553,0,0,0,3.5882,8.0429,3.9345,3.9345,0,0,0,2.9531,9.417a3.4463,3.4463,0,0,0-.012,1.5552,3.8557,3.8557,0,0,0,.624,1.3725,4.3445,4.3445,0,0,0,2.3484,1.6541c.0351.01.0718.0184.1077.0271A17.4056,17.4056,0,0,0,8.79,23.9213a10.818,10.818,0,0,0,7.077,4.4916,5.4012,5.4012,0,0,0,.9407.079A9.0952,9.0952,0,0,0,22.33,26.3782c2.3069-1.8281,5.1284-5.5083,5.63-12.6922a4.3955,4.3955,0,0,0,1.56-1.3413,3.8419,3.8419,0,0,0,.624-1.3725A3.435,3.435,0,0,0,30.1328,9.417Z" fill="#2d3448"/><path d="M19.3866,23.4462c-.1165-.1811-.4142-.2585-.5387-.1165a1.5459,1.5459,0,0,1-1.6238.616.5544.5544,0,0,1-.4005-.5394v-.3056l1.0165-.8793.8546-.7413a.2691.2691,0,0,0-.1763-.4724H14.36a.2691.2691,0,0,0-.1764.4724l.8546.7413,1.0166.8793v.5306a.4409.4409,0,0,1-.1245.3216c-.292.2729-.8282.0487-.9152.403a.405.405,0,0,0,.1628.41,1.9631,1.9631,0,0,0,1.06.3894c.1731.0144.3471.0056.521.0048l.26-.0088.13-.0064.1532-.01a3.1727,3.1727,0,0,0,1.2217-.3464,2.1286,2.1286,0,0,0,.5466-.4125,1.4665,1.4665,0,0,0,.363-.6136A.3918.3918,0,0,0,19.3866,23.4462Z" fill="#2d3448"/><path d="M22.6678,19.35c-.0822-.5283-.2808-.6839-.8394-.6144a1.207,1.207,0,0,0-.1987.0438l-.0056.0024a2.1039,2.1039,0,0,0-1.0469.8507c-.2035.2984-.3774.7851-.1532,1.0333.217.2394.8913-.0678,1.3557-.2234C22.1228,20.3277,22.7987,20.1976,22.6678,19.35Z" fill="#fff"/><path d="M21.1687,19.0114a.967.967,0,1,0,.8331-1.0844A.9678.9678,0,0,0,21.1687,19.0114Z" fill="#ffc32d"/><path d="M22.002,17.927c-1.007.1317-1.6238,2.0962-1.2831,2.2973.2266.134-.1125-.1628,1.5353-.38" fill="#ffc32d"/><path d="M23.0862,19.147a.9316.9316,0,0,0-1.0845-.8323.9478.9478,0,0,0-.3981.1493c-.8012.4851-1.2472,1.6637-.9536,1.8376.2266.1341.5155-.3527,1.477-.24A.8442.8442,0,0,0,23.0862,19.147Z" fill="#2d3448"/><path d="M10.2131,19.35c.0814-.5283.28-.6839.8394-.6144a1.2253,1.2253,0,0,1,.1987.0438l.0048.0024a2.1024,2.1024,0,0,1,1.0477.8507c.2035.2984.3774.7851.1532,1.0333-.217.2394-.8913-.0678-1.3565-.2234C10.7573,20.3277,10.0814,20.1976,10.2131,19.35Z" fill="#fff"/><path d="M11.71,19.0114a.967.967,0,1,1-.8331-1.0844A.9678.9678,0,0,1,11.71,19.0114Z" fill="#ffc32d"/><path d="M10.8781,17.927c1.007.1317,1.6239,2.0962,1.2839,2.2973-.2274.134.1117-.1628-1.536-.38" fill="#ffc32d"/><path d="M9.7939,19.147a.9314.9314,0,0,1,1.0844-.8323.9482.9482,0,0,1,.3982.1493c.8011.4851,1.2471,1.6637.9535,1.8376-.2266.1341-.5155-.3527-1.477-.24A.8441.8441,0,0,1,9.7939,19.147Z" fill="#2d3448"/><path d="M19.743,30.0547a5.12,5.12,0,0,0,1.015-.1867c.162-.0383.3232-.1013.482-.1444l.4748-.1644a18.8865,18.8865,0,0,0,1.8329-.782,15.5125,15.5125,0,0,0,1.7227-.9695,8.1666,8.1666,0,0,0,1.5616-1.303,3.7057,3.7057,0,0,1-1.078,1.8823,6.5812,6.5812,0,0,1-1.7874,1.2536,7.151,7.151,0,0,1-2.0723.6495c-.1819.0192-.3615.0439-.5442.0511a5.25,5.25,0,0,1-.55-.0056,3.0177,3.0177,0,0,1-.5458-.0862,1.7012,1.7012,0,0,1-.2641-.079C19.905,30.1313,19.822,30.0962,19.743,30.0547Z" fill="#ffc32d"/><path d="M32.3269,4.479a1.32,1.32,0,1,1-1.32-1.32A1.32,1.32,0,0,1,32.3269,4.479Z" fill="#fff"/><path d="M12.5973,14.396h.4309c-.0024-.0255-.008-.05-.008-.0774V12.4434h-.5274a.7556.7556,0,0,1-.3439-.0854,2.0633,2.0633,0,0,1-.4165-.1867,3.3905,3.3905,0,0,1-.6232-.4795,10.2615,10.2615,0,0,1-.8586-.98A18.3533,18.3533,0,0,0,8.7919,8.9668,3.2419,3.2419,0,0,0,7.204,8.0132c-.0694-.0151-.14-.0191-.2091-.0327l-.2138-.0112a1.586,1.586,0,0,0-.3663.0567,2.52,2.52,0,0,0-.7915.3854c-.04.0271-.0766.0566-.1141.0854a4.5562,4.5562,0,0,1,1.2416.3215,3.9313,3.9313,0,0,1,1.366.9241,3.02,3.02,0,0,1,.5355.7835C10.379,11.8067,11.3645,14.396,12.5973,14.396Z" fill="#fff"/><path d="M14.5572,12.4432v1.8759a.6076.6076,0,0,1-.008.0767h1.1315c-.0024-.0256-.008-.05-.008-.0767V12.4432Z" fill="#fff"/><path d="M24.5452,10.3135a3.0174,3.0174,0,0,1,.4245-.5714,3.929,3.929,0,0,1,1.3661-.924,4.5147,4.5147,0,0,1,1.2416-.3208c-.0383-.0295-.075-.059-.1141-.0862a2.5638,2.5638,0,0,0-.7924-.3854,1.5775,1.5775,0,0,0-.3662-.0566l-.2131.0111c-.0694.0136-.14.0184-.209.0328a3.2315,3.2315,0,0,0-1.5879.9543,18.3239,18.3239,0,0,0-1.4595,1.7443,10.1431,10.1431,0,0,1-.8586.9807,3.35,3.35,0,0,1-.6232.4788,1.87,1.87,0,0,1-.9671.2721h-.32v1.8759c0,.0264-.0056.0511-.008.0767h.2259C21.59,14.3958,22.6182,11.4888,24.5452,10.3135Z" fill="#fff"/><path d="M17.2071,12.4432v1.8759c0,.0264-.0048.0511-.0071.0767h1.3373c-.0024-.0256-.0072-.05-.0072-.0767V12.4432Z" fill="#fff"/><path d="M8.548,11.671V11.67a.3835.3835,0,0,1-.4133-.2609l-.0032-.01a2.0446,2.0446,0,0,0-.6742-.9607,2.8917,2.8917,0,0,0-1.0868-.5338,3.168,3.168,0,0,0-1.1914-.0894,1.81,1.81,0,0,0-.5059.1332.7452.7452,0,0,0-.1261.0711,1.8053,1.8053,0,0,0-.004.454C6.5867,9.9841,7.5059,11.94,8.548,11.671Z" fill="#ffc32d"/><path d="M28.5394,10.02a.7376.7376,0,0,0-.1261-.0711,1.8086,1.8086,0,0,0-.5059-.1332,3.2027,3.2027,0,0,0-1.1913.0893,2.895,2.895,0,0,0-1.086.5339,2.0464,2.0464,0,0,0-.6751.9607l-.0032.01a.3836.3836,0,0,1-.4077.2633c1.04.26,1.96-1.6876,3.9993-1.1985A1.8053,1.8053,0,0,0,28.5394,10.02Z" fill="#ffc32d"/><path d="M3.9958,12.853A15.28,15.28,0,0,0,6.47,25.9409,16.0691,16.0691,0,0,1,5.3284,13.785,4.3366,4.3366,0,0,1,3.9958,12.853Z" fill="#fff"/><path d="M36.3671,1.5359H18.7755A15.1574,15.1574,0,0,0,7.637,6.3411a4.1373,4.1373,0,0,1,1.2918.5418c.1309.0838.2546.1724.3743.2633A16.0177,16.0177,0,0,1,20.7066,2.4008L20.7073,2.4H35.5811Q35.9688,1.9452,36.3671,1.5359Z" fill="#fff"/><path d="M30.7939,43.7928c0,.0239.0024.0486.0032.0726a1.1216,1.1216,0,0,1-.8826.3862H27.7433a1.5483,1.5483,0,0,1-1.5456-1.5472c0-1.6175.5107-1.8912,1.0509-2.1824.091-.0487.1787-.0966.26-.1444a.769.769,0,0,0,.1852-1.1635,10.091,10.091,0,0,1-.7685-1.0341,11.8424,11.8424,0,0,0,1.935-.0287,6.1386,6.1386,0,0,0,2.8232,2.393A5.2425,5.2425,0,0,0,30.7939,43.7928Zm10.8928-15.477c-.04-.2657-.0862-.5362-.1437-.8155a8.3378,8.3378,0,0,0-.43-1.4188h0a6.76,6.76,0,0,0-4.8076-4.2323q-.3555.7314-.7541,1.4315c2.4912.2258,4.0416,2.3875,4.4877,4.5332a11.6667,11.6667,0,0,1-.7229,7.1169c-.3392.8921-.5833,1.5368-.2929,2.1169.5067,1.01.7477,2.1649.7477,5.9886a2.141,2.141,0,0,1-2.3037,2.3029H33.8763A1.5128,1.5128,0,0,1,32.33,43.7928a3.4057,3.4057,0,0,1,1.3589-3.104.7673.7673,0,0,0-.4564-1.3845c-1.8967,0-3.7424-2.1193-4.1142-4.7246a.7678.7678,0,1,0-1.52.2178,8.3825,8.3825,0,0,0,.4915,1.8664,8.53,8.53,0,0,1-5.5665-1.6509.7685.7685,0,0,0-1.2208.62v8.16a1.5478,1.5478,0,0,1-1.5464,1.5464H16.497A1.5479,1.5479,0,0,1,14.95,43.7928a2.4228,2.4228,0,0,1,.632-1.872,2.3991,2.3991,0,0,1,1.4132-.52.7678.7678,0,1,0-.1365-1.53,4.6831,4.6831,0,0,0-1.1578.2449V33.4083q-.78-.1449-1.5361-.3591v1.6661a6.1665,6.1665,0,0,0-3.21,1.5528c-.1109.0934-.2577.2235-.4157.3743-.03-.0479-.0575-.095-.09-.1405a2.0367,2.0367,0,0,0-.794-.67.4084.4084,0,0,0-.5593.4892l.0167.0535c.0766.2593.14.48.1836.7021a5.5757,5.5757,0,0,1,.0981.6448,2.4183,2.4183,0,0,1,.0112.2841,2.92,2.92,0,0,1-.0271.3343,2.9812,2.9812,0,0,1-.1652.6447A2.9033,2.9033,0,0,1,7.335,40.7127a2.9926,2.9926,0,0,1-1.3006.0758,3.3192,3.3192,0,0,1-1.2448-.482,2.9263,2.9263,0,0,1-1.3813-2.0994c-.0048-.051-.01-.1029-.01-.154l-.0024-.0774.0032-.09c.0072-.1221.004-.2442.0176-.3655s.0223-.2442.0415-.3647l.0646-.363a6.8028,6.8028,0,0,1,.474-1.4172A9.08,9.08,0,0,1,5.7591,32.86a10.6759,10.6759,0,0,1,2.4744-1.9023,8.3677,8.3677,0,0,1,.7892-.3846,16.995,16.995,0,0,1-1.4244-1.1371c-.0471.0239-.0957.0455-.1428.07a12.0643,12.0643,0,0,0-2.9149,2.1529,10.73,10.73,0,0,0-2.1241,2.9867,8.0691,8.0691,0,0,0-.5993,1.7866c-.0319.1556-.0558.3136-.083.47-.0239.1572-.0359.3176-.0534.4764s-.0152.3191-.0224.48l-.004.12.004.1341c.0016.0894.01.1787.0184.2681a4.2973,4.2973,0,0,0,.7253,1.97,5.0324,5.0324,0,0,0,3.3745,2.1066,4.4841,4.4841,0,0,0,4.91-2.9333,4.5671,4.5671,0,0,0,.2091-.8625A.715.715,0,0,0,10.93,38.53a6.0336,6.0336,0,0,1,3.2348-2.2757v4.9576a4.163,4.163,0,0,0-.7508,2.5806,3.0861,3.0861,0,0,0,3.0832,3.0824h3.2589a3.0859,3.0859,0,0,0,3.0824-3.0824v-6.77a9.8645,9.8645,0,0,0,2.08.8235.8071.8071,0,0,0,.0606.1276c.3017.494.6368,1.0334.9935,1.5305-.7014.5059-1.3111,1.3366-1.3111,3.2a3.0848,3.0848,0,0,0,3.0817,3.0824h2.1712a2.8636,2.8636,0,0,0,1.3462-.3471,3.0522,3.0522,0,0,0,2.6156,1.4355h3.5908a3.6732,3.6732,0,0,0,3.84-3.8389c0-3.6578-.205-5.2281-.8737-6.603a6.6276,6.6276,0,0,1,.3184-.9575A13.27,13.27,0,0,0,41.6867,28.3158Z" fill="#2d3448"/><path d="M48.5747,22.0566a1.8792,1.8792,0,0,1-3.7584,0,4.2169,4.2169,0,0,1,1.5113-3.4544,4.6027,4.6027,0,0,1,2.8615-.8665,7.2161,7.2161,0,0,1,.7437.04A6.7121,6.7121,0,0,0,48.5747,22.0566Zm3.6282-4.9553a.7659.7659,0,0,0-.553-.5657,7.1288,7.1288,0,0,0-6.2614.8514,5.7175,5.7175,0,0,0-2.1082,4.67,3.4173,3.4173,0,0,0,1.9063,3.0593h0a3.3992,3.3992,0,0,0,1.4977.3551l.0112.0008a3.4191,3.4191,0,0,0,3.4152-3.4152,5.1637,5.1637,0,0,1,1.852-4.202A.7648.7648,0,0,0,52.2029,17.1013Z" fill="#2d3448"/><path d="M45.1866,25.116a2.284,2.284,0,0,1-4.0736.9655,8.3323,8.3323,0,0,1,.43,1.4188c.0575.2792.1038.55.1437.8163a3.8188,3.8188,0,0,0,4.9975-2.8455A3.3965,3.3965,0,0,1,45.1866,25.116Z" fill="#2d3448"/></svg>